<?xml version="1.0" encoding="utf-8"?>
<!-- Svg Vector Icons : http://www.onlinewebfonts.com/icon -->
<!DOCTYPE svg PUBLIC "-//W3C//DTD SVG 1.1//EN" "http://www.w3.org/Graphics/SVG/1.1/DTD/svg11.dtd">
<svg version="1.1" xmlns="http://www.w3.org/2000/svg" xmlns:xlink="http://www.w3.org/1999/xlink" x="0px" y="0px" viewBox="0 0 1000 1000" enable-background="new 0 0 1000 1000" xml:space="preserve">
<metadata> Svg Vector Icons : http://www.onlinewebfonts.com/icon </metadata>
<g><path d="M500,10C229.4,10,10,229.4,10,500c0,270.6,219.4,490,490,490s490-219.4,490-490C990,229.4,770.6,10,500,10z M500,945.5C254,945.5,54.5,746,54.5,500C54.5,254,254,54.5,500,54.5C746,54.5,945.5,254,945.5,500C945.5,746,746,945.5,500,945.5z M321.8,552.2l126,126l225-225l-126-126L321.8,552.2z M578.3,295.7l126,126l63-63l-126-126L578.3,295.7z M253.4,746.7l157.5-31.5l-126-126.1L253.4,746.7z"/></g>
</svg>