<svg xmlns="http://www.w3.org/2000/svg" xmlns:xlink="http://www.w3.org/1999/xlink" width="50" height="43" viewBox="0 0 50 43"><defs><path id="s03aa" d="M1024.57 964h42.858a3.578 3.578 0 0 1 3.571 3.583v35.833c0 1.98-1.599 3.584-3.571 3.584h-42.857a3.577 3.577 0 0 1-3.572-3.584v-35.833a3.577 3.577 0 0 1 3.572-3.583zm.43 39h42v-30h-42zm17-33h25v-3h-25zm-16.536-1.521c0 .99.799 1.792 1.785 1.792.986 0 1.786-.803 1.786-1.792 0-.99-.8-1.792-1.786-1.792s-1.785.802-1.785 1.792zm5.357 0c0 .99.8 1.792 1.785 1.792.987 0 1.786-.803 1.786-1.792 0-.99-.8-1.792-1.786-1.792s-1.785.802-1.785 1.792zm5.468 0c0 .99.8 1.792 1.786 1.792s1.786-.803 1.786-1.792c0-.99-.8-1.792-1.786-1.792s-1.786.802-1.786 1.792z"/></defs><g><g transform="translate(-1021 -964)"><use fill="#737373" xlink:href="#s03aa"/></g></g></svg>