<svg xmlns="http://www.w3.org/2000/svg" xmlns:xlink="http://www.w3.org/1999/xlink" width="97" height="97" viewBox="0 0 97 97"><defs><path id="6b08a" d="M698.5 1529c26.786 0 48.5 21.714 48.5 48.5s-21.714 48.5-48.5 48.5-48.5-21.714-48.5-48.5 21.714-48.5 48.5-48.5z"/><path id="6b08b" d="M713.546 1568.358l-6.02 10.472a3.431 3.431 0 0 1-4.698 1.265l-1.49-.864 1.72-2.992a1.716 1.716 0 0 0 2.35-.632l4.3-7.48a1.731 1.731 0 0 0-.63-2.36l-5.958-3.455a1.715 1.715 0 0 0-2.35.632l-4.299 7.48a1.732 1.732 0 0 0 .63 2.36l-1.72 2.992-1.49-.864a3.464 3.464 0 0 1-1.259-4.72l6.02-10.472a3.431 3.431 0 0 1 4.699-1.264l8.936 5.182a3.464 3.464 0 0 1 1.26 4.72zM693.2 1586.48a1.732 1.732 0 0 1-.63-2.36l6.88-11.968a1.716 1.716 0 0 1 2.35-.633 1.732 1.732 0 0 1 .629 2.36l-6.88 11.969a1.716 1.716 0 0 1-2.35.632zm-1.26-4.72a1.716 1.716 0 0 0-2.348.633l-4.3 7.48a1.732 1.732 0 0 0 .63 2.36l5.957 3.455a1.716 1.716 0 0 0 2.35-.632l4.3-7.48a1.732 1.732 0 0 0-.63-2.36l1.72-2.993 1.49.864a3.464 3.464 0 0 1 1.258 4.72l-6.02 10.472a3.431 3.431 0 0 1-4.698 1.265l-8.937-5.183a3.464 3.464 0 0 1-1.259-4.72l6.02-10.472a3.431 3.431 0 0 1 4.698-1.264l1.49.863z"/></defs><g><g transform="translate(-650 -1529)"><use fill="#2ecc71" xlink:href="#6b08a"/></g><g transform="translate(-650 -1529)"><use fill="#fff" xlink:href="#6b08b"/></g></g></svg>