<svg xmlns="http://www.w3.org/2000/svg" xmlns:xlink="http://www.w3.org/1999/xlink" width="380" height="240" viewBox="0 0 380 240"><defs><path id="mqq4a" d="M229 1017h380v240H229z"/><path id="mqq4b" d="M229 1234h380v23H229z"/><path id="mqq4c" d="M441.31 1139.023l-32.818 21.946a6.115 6.115 0 0 1-6.263.32 6.049 6.049 0 0 1-3.229-5.343v-43.892a6.049 6.049 0 0 1 3.229-5.344 6.124 6.124 0 0 1 6.263.321l32.817 21.946A6.044 6.044 0 0 1 444 1134a6.044 6.044 0 0 1-2.69 5.023z"/></defs><g><g transform="translate(-229 -1017)"><use fill="#f39c12" xlink:href="#mqq4a"/></g><g transform="translate(-229 -1017)"><use fill="#f5aa34" xlink:href="#mqq4b"/></g><g opacity=".5" transform="translate(-229 -1017)"><use fill="#fff" xlink:href="#mqq4c"/></g></g></svg>