<svg xmlns="http://www.w3.org/2000/svg" xmlns:xlink="http://www.w3.org/1999/xlink" width="45" height="46" viewBox="0 0 45 46"><defs><path id="pzlta" d="M848.082 1007.994l-1.094 1.092a3.096 3.096 0 0 1-4.374 0l-8.75-8.737c-1.014-1.013-1.124-2.53-.436-3.713l-4.783-4.776a15.39 15.39 0 0 1-9.196 3.048c-8.541 0-15.466-6.916-15.466-15.446s6.925-15.446 15.466-15.446c8.542 0 15.466 6.915 15.466 15.446 0 3.971-1.513 7.58-3.979 10.317l4.68 4.673c1.183-.688 2.703-.577 3.717.436l8.749 8.738a3.086 3.086 0 0 1 0 4.368zm-17.065-28.597c0-6.397-5.194-11.584-11.6-11.584-1.784 0-3.454.435-4.965 1.154.808.828 2.025 2.066 2.09 2.066-1.257 0-5.371 4.11-5.371 5.46 0-.065-1.31-1.306-2.167-2.111-.737 1.523-1.187 3.21-1.187 5.015 0 6.398 5.194 11.585 11.6 11.585s11.6-5.187 11.6-11.585z"/></defs><g><g transform="translate(-804 -964)"><use fill="#737373" xlink:href="#pzlta"/></g></g></svg>