<?xml version="1.0" encoding="utf-8"?>
<!-- Svg Vector Icons : http://www.onlinewebfonts.com/icon -->
<!DOCTYPE svg PUBLIC "-//W3C//DTD SVG 1.1//EN" "http://www.w3.org/Graphics/SVG/1.1/DTD/svg11.dtd">
<svg version="1.1" xmlns="http://www.w3.org/2000/svg" xmlns:xlink="http://www.w3.org/1999/xlink" x="0px" y="0px" viewBox="0 0 1000 1000" enable-background="new 0 0 1000 1000" xml:space="preserve">
<metadata> Svg Vector Icons : http://www.onlinewebfonts.com/icon </metadata>
<g><path d="M599.3,477.5l52.9,49l-24.8,33L596,525.8L554.3,481l54.5-54.6l57.4,55.4l0,0l11.2,10.8l-10.4,13.8L616,459.3c-5-4.6-12.8-4.4-17.4,0.7C594,465,594.3,472.8,599.3,477.5z"/><path d="M591.7,376.1c-2.7,23.7-14.6,47.1-33.5,66c-21.6,21.6-49.3,34-75.8,34l0,0c-18.8,0-34.9-6.2-46.7-18c-10.5-10.5-16.6-24.6-17.8-41c-0.1-1.7-0.6-3.4-1.4-4.9c-37.6-71.2-83-95.2-111.6-103.3c40.8-35,83.6-52.7,127.4-52.7c81.8,0,141.1,62.3,141.9,63.2C588.1,333.4,594.3,353.4,591.7,376.1z"/><path d="M10,141.4c0-5.4,4.4-9.8,9.8-9.8h632.8c5.4,0,9.8,4.4,9.8,9.8v302.5l-45.2-43.6c-1.4-1.3-3-2.2-4.7-2.7c1.7-6.1,3-12.4,3.7-18.6c3.5-30.3-5.2-57.6-24.2-76.5c-2.7-2.9-66.9-70.8-159.7-70.8c-57.3,0-112.3,26-163.5,77.1c-3.6,3.6-4.2,9.2-2.1,13.9c2.1,4.7,7.4,7.6,12.5,7.2c10.9,0,67.3,4.5,114.2,91.8c2.1,21.3,10.6,39.9,24.7,54c16.3,16.3,39.1,25.3,64.2,25.3c0,0,0,0,0,0c15.8,0,31.8-3.5,47.2-10l22.7,24.4H10V141.4z"/><path d="M428.1,747.4l-183.4,0.3c-0.1-0.1-0.8-1-0.8-2.6v-18.5h184.7v18.5C428.6,746.2,428.3,747,428.1,747.4z"/><path d="M428.6,644.5v57.4H243.9v-57.4c0-1.3,0.4-2.1,0-2.3H428C428.3,642.6,428.6,643.2,428.6,644.5z"/><path d="M429,617.5H243.5H19.9c-5.4,0-9.8-4.4-9.8-9.8v-67.7h565.4l72.3,77.6L429,617.5L429,617.5z"/><path d="M973.9,852.3c-10.2,10.2-24.1,16.1-38,16.1c-12.5,0-24-4.7-32.2-12.8L678.3,614c0,0,0,0,0,0l-33.7-36.1l25.9-34.5L844,703.9c2.3,2.2,5.4,3.3,8.4,3.3c3.3,0,6.6-1.3,9.1-4c4.6-5,4.3-12.8-0.7-17.5L685.4,523.5l10-13.4l281.5,271.8C995.5,800.5,994.1,832.1,973.9,852.3z"/></g>
</svg>