<?xml version="1.0" encoding="utf-8"?>
<!-- Svg Vector Icons : http://www.onlinewebfonts.com/icon -->
<!DOCTYPE svg PUBLIC "-//W3C//DTD SVG 1.1//EN" "http://www.w3.org/Graphics/SVG/1.1/DTD/svg11.dtd">
<svg version="1.1" xmlns="http://www.w3.org/2000/svg" xmlns:xlink="http://www.w3.org/1999/xlink" x="0px" y="0px" viewBox="0 0 1000 1000" enable-background="new 0 0 1000 1000" xml:space="preserve">
<metadata> Svg Vector Icons : http://www.onlinewebfonts.com/icon </metadata>
<g><path d="M732.2,540.3L536.3,655.6L340.4,770.8V540.3V309.8l195.9,115.3L732.2,540.3z"/><path d="M935.8,37.1H67.6C36.9,37.1,10,64,10,94.7v810.6c0,30.7,26.9,57.6,57.6,57.6H932c30.7,0,57.6-26.9,57.6-57.6V98.5C993.5,64,966.6,37.1,935.8,37.1z M786,75.5c23,0,38.4,19.2,38.4,38.4s-19.2,38.4-38.4,38.4c-19.2,0-38.4-19.2-38.4-38.4S766.8,75.5,786,75.5z M678.5,75.5c23.1,0,38.4,19.2,38.4,38.4s-19.2,38.4-38.4,38.4c-19.2,0-38.4-19.2-38.4-38.4S655.4,75.5,678.5,75.5z M935.8,905.3H67.6V194.6H932v710.7H935.8z M893.6,156.2c-23,0-38.4-19.2-38.4-38.4s19.2-38.4,38.4-38.4c19.2,0,38.4,19.2,38.4,38.4S916.6,156.2,893.6,156.2z"/></g>
</svg>