<svg xmlns="http://www.w3.org/2000/svg" xmlns:xlink="http://www.w3.org/1999/xlink" width="50" height="58" viewBox="0 0 50 58"><defs><path id="aco7a" d="M359.94 982.193h-2.127a15.18 15.18 0 0 1-1.475 3.536l1.965 1.965a3.218 3.218 0 0 1 0 4.552l-1.138 1.138a3.222 3.222 0 0 1-4.555 0l-1.978-1.977a15.193 15.193 0 0 1-3.526 1.45v2.062a3.22 3.22 0 0 1-3.22 3.22h-1.611a3.22 3.22 0 0 1-3.221-3.22v-2.062a15.195 15.195 0 0 1-3.525-1.45l-1.978 1.977a3.222 3.222 0 0 1-4.555 0l-1.139-1.138a3.218 3.218 0 0 1 0-4.552l1.966-1.965a15.169 15.169 0 0 1-1.476-3.536h-2.126a3.22 3.22 0 0 1-3.221-3.219v-1.61a3.22 3.22 0 0 1 3.22-3.218h2.101c.333-1.24.81-2.418 1.426-3.511l-1.89-1.889a3.218 3.218 0 0 1 0-4.553l1.139-1.138a3.222 3.222 0 0 1 4.555 0l1.852 1.852a15.188 15.188 0 0 1 3.65-1.525v-2.163a3.22 3.22 0 0 1 3.222-3.22h1.61a3.22 3.22 0 0 1 3.221 3.22v2.162c1.294.353 2.518.867 3.65 1.526l1.854-1.852a3.222 3.222 0 0 1 4.555 0l1.138 1.138a3.218 3.218 0 0 1 0 4.553l-1.89 1.889a15.176 15.176 0 0 1 1.426 3.51h2.1a3.22 3.22 0 0 1 3.222 3.22v1.61a3.22 3.22 0 0 1-3.221 3.218zm-16.86-12.826c-4.892 0-8.857 3.964-8.857 8.853 0 4.889 3.965 8.853 8.857 8.853 4.892 0 8.858-3.964 8.858-8.853 0-4.89-3.966-8.853-8.858-8.853zm0 12.776a4.025 4.025 0 0 1-4.026-4.024 4.025 4.025 0 0 1 4.026-4.024 4.025 4.025 0 0 1 4.026 4.024 4.025 4.025 0 0 1-4.026 4.024zm28.358 26.124h-1.031a7.365 7.365 0 0 1-.716 1.714l.953.953c.61.61.61 1.598 0 2.208l-.552.552c-.61.61-1.6.61-2.21 0l-.959-.959a7.367 7.367 0 0 1-1.71.704v1c0 .862-.699 1.56-1.561 1.56h-.782a1.562 1.562 0 0 1-1.562-1.56v-1a7.377 7.377 0 0 1-1.71-.704l-.959.96c-.61.61-1.599.61-2.209 0l-.552-.553a1.56 1.56 0 0 1 0-2.208l.953-.953a7.368 7.368 0 0 1-.716-1.714h-1.031a1.562 1.562 0 0 1-1.562-1.562v-.78c0-.862.7-1.561 1.562-1.561h1.019c.161-.601.392-1.173.691-1.703l-.916-.916a1.56 1.56 0 0 1 0-2.208l.552-.552c.61-.61 1.599-.61 2.21 0l.898.898c.55-.32 1.143-.57 1.77-.74v-1.049c0-.862.7-1.561 1.562-1.561h.781c.863 0 1.563.699 1.563 1.561v1.049a7.37 7.37 0 0 1 1.77.74l.899-.898c.61-.61 1.599-.61 2.209 0l.552.552c.61.61.61 1.598 0 2.208l-.916.916c.298.53.53 1.102.691 1.703h1.019c.862 0 1.562.699 1.562 1.56v.781c0 .863-.7 1.562-1.562 1.562zm-8.177-6.221a4.295 4.295 0 1 0 0 8.587 4.295 4.295 0 0 0 0-8.587zm0 6.196a1.952 1.952 0 1 1-.001-3.904 1.952 1.952 0 0 1 .001 3.904z"/></defs><g><g transform="translate(-323 -958)"><use fill="#737373" xlink:href="#aco7a"/></g></g></svg>