<svg xmlns="http://www.w3.org/2000/svg" xmlns:xlink="http://www.w3.org/1999/xlink" width="34" height="34" viewBox="0 0 34 34"><defs><path id="c0gfa" d="M1169 63.132c0 9.315-7.489 16.868-16.726 16.868-9.237 0-16.725-7.553-16.725-16.868 0-9.317 7.488-16.868 16.725-16.868 9.237 0 16.726 7.551 16.726 16.868zm-4.181 0c0-6.988-5.617-12.651-12.545-12.651s-12.544 5.663-12.544 12.65 5.616 12.652 12.544 12.652c6.928 0 12.545-5.665 12.545-12.651zm-5.348 1.492a7.5 7.5 0 0 1-1.105 2.651c-.264.391-.566.76-.897 1.096a7.354 7.354 0 0 1-2.335 1.587 7.303 7.303 0 0 1-8.055-1.587 7.628 7.628 0 0 1-.896-1.096 7.4 7.4 0 0 1-1.254-4.144 7.463 7.463 0 0 1 1.254-4.143c.263-.392.565-.76.896-1.095a7.368 7.368 0 0 1 3.715-2.02 7.335 7.335 0 0 1 4.34.432 7.373 7.373 0 0 1 2.335 1.588c.331.335.633.703.897 1.095.264.396.492.82.677 1.26a7.528 7.528 0 0 1 .577 2.884c0 .501-.05 1.003-.15 1.492zm-3.715 3.618a6.199 6.199 0 0 0 2.543-3.861c.018-.094.027-.19.042-.284a5.864 5.864 0 0 0-.198-.054l-.037-.01a8.898 8.898 0 0 0-.693-.143h-.004a8.934 8.934 0 0 0-2.852-.026 28.291 28.291 0 0 1 1.199 4.378zm-5.876.603c.372.159.76.28 1.154.362a6.232 6.232 0 0 0 2.479 0 6.084 6.084 0 0 0 1.154-.362c.012-.004.023-.01.035-.016a26.904 26.904 0 0 0-1.32-4.675l-.04.013c-.374.131-.717.28-1.042.434-.046.022-.095.043-.14.066a9.81 9.81 0 0 0-.84.468l-.143.091c-.251.163-.485.328-.696.495-.034.026-.064.052-.097.079a8.08 8.08 0 0 0-1.064 1.02l-.06.068a7.508 7.508 0 0 0-.645.88 4.829 4.829 0 0 0-.138.235c.118.093.236.187.359.27.33.224.68.417 1.044.572zm-3.745-5.913c-.002.067-.01.133-.01.2a6.175 6.175 0 0 0 1.05 3.467c.151.223.334.421.511.624.042-.067.105-.163.178-.27l.036-.054c.078-.112.172-.24.28-.382l.063-.082c.116-.147.244-.304.391-.472l.068-.075c.16-.178.331-.362.526-.55.19-.185.4-.37.623-.555.035-.028.066-.056.1-.084a9.5 9.5 0 0 1 1.659-1.065c.043-.022.088-.04.132-.062.307-.145.626-.28.967-.392.08-.026.161-.046.242-.069a21.452 21.452 0 0 0-.507-1.083c-2.538.765-4.988.888-5.977.902-.141.002-.255.003-.332.002zm3.541-5.415a6.135 6.135 0 0 0-.84.472c-.325.222-.63.476-.909.757a6.158 6.158 0 0 0-1.663 3.081c.065 0 .155 0 .266-.003h.008c.225-.005.538-.016.92-.041h.002c.959-.064 2.35-.218 3.888-.583.191-.045.384-.094.578-.146a38.525 38.525 0 0 0-2.25-3.537zm6.036.472a6.114 6.114 0 0 0-4.678-.934c-.052.011-.103.029-.154.041.3.41 1.317 1.832 2.255 3.569.245-.093.475-.192.689-.292l.012-.006c1.506-.712 2.26-1.566 2.492-1.866-.2-.178-.396-.362-.616-.512zm2.587 3.892a6.257 6.257 0 0 0-.926-2.217c-.102-.153-.233-.284-.35-.428-.251.319-1.08 1.227-2.65 2.025l-.05.024a10.36 10.36 0 0 1-.704.322c.148.305.291.614.423.927.047.111.086.218.13.328.224-.028.446-.048.666-.061l.111-.006c.189-.01.373-.016.556-.018l.093-.001c.209 0 .413.004.61.012l.042.002a15.714 15.714 0 0 1 1.882.2l.064.011c.09.016.166.03.223.042a6.45 6.45 0 0 0-.12-1.162z"/></defs><g><g transform="translate(-1135 -46)"><use fill="#dadada" xlink:href="#c0gfa"/></g></g></svg>