<svg xmlns="http://www.w3.org/2000/svg" xmlns:xlink="http://www.w3.org/1999/xlink" width="35" height="34" viewBox="0 0 35 34"><defs><path id="ws9qa" d="M1002.266 62.868c0 9.316-7.49 16.868-16.726 16.868-9.238 0-16.726-7.552-16.726-16.868 0-9.316 7.488-16.868 16.726-16.868 9.237 0 16.726 7.552 16.726 16.868zm-4.182 0c0-6.987-5.617-12.65-12.544-12.65-6.928 0-12.545 5.663-12.545 12.65s5.617 12.651 12.545 12.651c6.927 0 12.544-5.664 12.544-12.65zm-11.993 6.598l-2.647.008-.008-6.347-1.567-.017v-2.4l1.584-.009.048-1.31c0-1.802.617-2.93 2.722-2.93l1.934.007.009 2.13-1.024.073c-.82 0-1.119.28-1.119.855l-.003 1.192h2.1l-.454 2.392h-1.583z"/></defs><g><g transform="translate(-968 -46)"><use fill="#dadada" xlink:href="#ws9qa"/></g></g></svg>