<svg xmlns="http://www.w3.org/2000/svg" xmlns:xlink="http://www.w3.org/1999/xlink" width="34" height="34" viewBox="0 0 34 34"><defs><path id="h54ea" d="M1085.372 63.132c0 9.315-7.49 16.868-16.726 16.868-9.238 0-16.726-7.553-16.726-16.868 0-9.317 7.488-16.868 16.726-16.868 9.236 0 16.726 7.551 16.726 16.868zm-4.182 0c0-6.988-5.617-12.651-12.544-12.651-6.928 0-12.545 5.663-12.545 12.65s5.617 12.652 12.545 12.652c6.927 0 12.544-5.665 12.544-12.651zm-7.105-1.99c0 3.194-1.76 5.58-4.355 5.58-.872 0-1.691-.476-1.972-1.015 0 0-.469 1.875-.567 2.237-.35 1.28-1.378 2.56-1.457 2.665-.057.072-.18.05-.193-.047-.022-.163-.284-1.777.025-3.094l1.038-4.436s-.258-.52-.258-1.288c0-1.206.694-2.107 1.557-2.107.734 0 1.089.556 1.089 1.222 0 .745-.47 1.857-.713 2.888-.203.865.43 1.569 1.274 1.569 1.53 0 2.56-1.981 2.56-4.328 0-1.785-1.192-3.12-3.36-3.12-2.447 0-3.974 1.842-3.974 3.899 0 .709.208 1.21.533 1.596.15.178.17.25.116.454-.039.15-.127.51-.165.653-.054.207-.219.28-.404.204-1.127-.464-1.653-1.71-1.653-3.11 0-2.312 1.934-5.085 5.77-5.085 3.081 0 5.11 2.248 5.11 4.663"/></defs><g><g transform="translate(-1052 -46)"><use fill="#dadada" xlink:href="#h54ea"/></g></g></svg>