<svg xmlns="http://www.w3.org/2000/svg" xmlns:xlink="http://www.w3.org/1999/xlink" width="34" height="34" viewBox="0 0 34 34"><defs><path id="qykca" d="M1043.557 63.132c0 9.315-7.489 16.868-16.725 16.868-9.238 0-16.726-7.553-16.726-16.868 0-9.317 7.488-16.868 16.726-16.868 9.236 0 16.725 7.551 16.725 16.868zm-4.181 0c0-6.988-5.617-12.651-12.544-12.651-6.928 0-12.545 5.663-12.545 12.65s5.617 12.652 12.545 12.652c6.927 0 12.544-5.665 12.544-12.651zm-10.207 4.656h-1.964c0-2.592-2.091-4.7-4.66-4.7v-1.98c3.66 0 6.624 2.992 6.624 6.68zm3.568 0h-1.964c0-4.576-3.69-8.3-8.228-8.3V57.51c5.63 0 10.192 4.604 10.192 10.28zm-7.79-1.212c0 .67-.537 1.212-1.2 1.212a1.206 1.206 0 0 1-1.202-1.212c0-.669.538-1.211 1.201-1.211.664 0 1.202.542 1.202 1.211z"/></defs><g><g transform="translate(-1010 -46)"><use fill="#dadada" xlink:href="#qykca"/></g></g></svg>