<svg xmlns="http://www.w3.org/2000/svg" xmlns:xlink="http://www.w3.org/1999/xlink" width="34" height="34" viewBox="0 0 34 34"><defs><path id="pr0wa" d="M960.451 62.868c0 9.316-7.489 16.868-16.725 16.868-9.238 0-16.726-7.552-16.726-16.868C927 53.552 934.488 46 943.726 46c9.236 0 16.725 7.552 16.725 16.868zm-4.181 0c0-6.987-5.617-12.65-12.544-12.65-6.928 0-12.545 5.663-12.545 12.65s5.617 12.651 12.545 12.651c6.927 0 12.544-5.664 12.544-12.65zm-7.404-2.222c.005.116.007.233.007.35 0 3.581-2.702 7.71-7.645 7.71a7.56 7.56 0 0 1-4.119-1.217 5.36 5.36 0 0 0 3.978-1.122 2.693 2.693 0 0 1-2.51-1.882 2.676 2.676 0 0 0 1.214-.047 2.706 2.706 0 0 1-2.155-2.657v-.034c.362.203.776.325 1.217.339a2.715 2.715 0 0 1-1.196-2.255c0-.497.133-.963.364-1.363a7.606 7.606 0 0 0 5.538 2.831 2.75 2.75 0 0 1-.069-.617c0-1.496 1.203-2.71 2.687-2.71.773 0 1.471.33 1.961.856a5.345 5.345 0 0 0 1.706-.657 2.715 2.715 0 0 1-1.18 1.499 5.335 5.335 0 0 0 1.542-.427 5.486 5.486 0 0 1-1.34 1.403z"/></defs><g><g transform="translate(-927 -46)"><use fill="#dadada" xlink:href="#pr0wa"/></g></g></svg>